<?xml version="1.0" encoding="UTF-8"?>
<svg width="364px" height="512px" viewBox="0 0 364 512" version="1.1" xmlns="http://www.w3.org/2000/svg" xmlns:xlink="http://www.w3.org/1999/xlink">
    <title>html5</title>
    <g id="Page-1" stroke="none" stroke-width="1" fill="none" fill-rule="evenodd">
        <g id="html5" transform="translate(0.633000, 0.000000)" fill-rule="nonzero">
            <polygon id="Path" fill="#E44D26" points="33.011 470.877 0 100.62 362.734 100.62 329.688 470.819 181.145 512"></polygon>
            <polygon id="Path" fill="#F16529" points="181.367 480.523 301.397 447.246 329.637 130.894 181.367 130.894"></polygon>
            <polygon id="Path" fill="#EBEBEB" points="181.367 268.217 121.277 268.217 117.127 221.716 181.367 221.716 181.367 176.305 181.21 176.305 67.499 176.305 68.586 188.488 79.747 313.627 181.367 313.627"></polygon>
            <polygon id="Path" fill="#EBEBEB" points="181.367 386.153 181.168 386.206 130.594 372.55 127.361 336.333 102.786 336.333 81.776 336.333 88.138 407.634 181.158 433.457 181.367 433.399"></polygon>
            <polygon id="Path" fill="#000000" points="33.749 0 56.826 0 56.826 22.8 77.936 22.8 77.936 0 101.014 0 101.014 69.044 77.937 69.044 77.937 45.924 56.827 45.924 56.827 69.044 33.75 69.044 33.75 0"></polygon>
            <polygon id="Path" fill="#000000" points="131.361 22.896 111.045 22.896 111.045 0 174.765 0 174.765 22.896 154.44 22.896 154.44 69.044 131.362 69.044 131.362 22.896"></polygon>
            <polygon id="Path" fill="#000000" points="184.878 0 208.941 0 223.743 24.26 238.53 0 262.602 0 262.602 69.044 239.62 69.044 239.62 34.822 223.743 59.371 223.346 59.371 207.458 34.822 207.458 69.044 184.878 69.044 184.878 0"></polygon>
            <polygon id="Path" fill="#000000" points="274.087 0 297.171 0 297.171 46.222 329.624 46.222 329.624 69.044 274.087 69.044"></polygon>
            <polygon id="Path" fill="#FFFFFF" points="181.21 268.217 181.21 313.627 237.128 313.627 231.857 372.521 181.21 386.191 181.21 433.435 274.304 407.634 274.987 399.962 285.658 280.411 286.766 268.217 274.529 268.217"></polygon>
            <polygon id="Path" fill="#FFFFFF" points="181.21 176.305 181.21 204.509 181.21 221.605 181.21 221.716 290.752 221.716 290.752 221.716 290.898 221.716 291.809 211.509 293.878 188.488 294.964 176.305"></polygon>
        </g>
    </g>
</svg>