<?xml version="1.0" encoding="UTF-8"?>
<svg width="476px" height="139px" viewBox="0 0 476 139" version="1.1" xmlns="http://www.w3.org/2000/svg" xmlns:xlink="http://www.w3.org/1999/xlink">
    <title>python</title>
    <defs>
        <linearGradient x1="0.959176447%" y1="9.14856261e-08%" x2="74.0505936%" y2="64.1103734%" id="linearGradient-1">
            <stop stop-color="#5A9FD4" offset="0%"></stop>
            <stop stop-color="#306998" offset="100%"></stop>
        </linearGradient>
        <linearGradient x1="49.9999998%" y1="82.2756107%" x2="24.2424815%" y2="44.914431%" id="linearGradient-2">
            <stop stop-color="#FFD43B" offset="0%"></stop>
            <stop stop-color="#FFE873" offset="100%"></stop>
        </linearGradient>
        <radialGradient cx="49.9999909%" cy="50.0000434%" fx="49.9999909%" fy="50.0000434%" r="50.0000504%" gradientTransform="translate(0.500000,0.500000),scale(0.193908,1.000000),rotate(-89.999996),translate(-0.500000,-0.500000)" id="radialGradient-3">
            <stop stop-color="#B8B8B8" stop-opacity="0.49803922" offset="0%"></stop>
            <stop stop-color="#7F7F7F" stop-opacity="0" offset="100%"></stop>
        </radialGradient>
    </defs>
    <g id="Page-1" stroke="none" stroke-width="1" fill="none" fill-rule="evenodd">
        <g id="python" transform="translate(0.591371, 0.261633)" fill-rule="nonzero">
            <path d="M179.022069,58.6677301 C179.022069,44.1055801 174.869809,36.6295601 166.565289,36.2201801 C163.261019,36.0642301 160.034739,36.5905701 156.896169,37.8089601 C154.391169,38.7056901 152.704929,39.5926801 151.817939,40.4894101 L151.817939,75.2475301 C157.130099,78.5810401 161.847699,80.1308201 165.960969,79.8871501 C174.665119,79.3120701 179.022069,72.2454301 179.022069,58.6677301 Z M189.266259,59.2720501 C189.266259,66.6700901 187.531279,72.8107601 184.041819,77.6940501 C180.152729,83.2206501 174.762589,86.0668001 167.871399,86.2227601 C162.676199,86.3884601 157.325049,84.7606901 151.817939,81.3492101 L151.817939,112.939527 L142.909099,109.761977 L142.909099,39.6414101 C144.371159,37.8479501 146.252349,36.3079101 148.533169,35.0018001 C153.835589,31.9119701 160.278409,30.3231901 167.861649,30.2452201 L167.988359,30.3719301 C174.918539,30.2842001 180.259949,33.1303601 184.012579,38.9006301 C187.511779,44.1933001 189.266259,50.9772801 189.266259,59.2720501 Z" id="path46" fill="#646464"></path>
            <path d="M243.713499,80.0041101 C243.713499,89.9266501 242.719299,96.7983471 240.730899,100.619207 C238.732739,104.440067 234.931379,107.490907 229.317049,109.761977 C224.765159,111.555437 219.842879,112.530147 214.559959,112.695847 L213.088149,107.081527 C218.458789,106.350497 222.240669,105.619457 224.433759,104.888427 C228.751719,103.426367 231.714839,101.184537 233.342599,98.1824271 C234.648709,95.7359101 235.292019,91.0670601 235.292019,84.1563701 L235.292019,81.8365701 C229.200089,84.6047401 222.815739,85.9790801 216.138989,85.9790801 C211.752799,85.9790801 207.883199,84.6047401 204.549699,81.8365701 C200.806809,78.8247101 198.935369,75.0038501 198.935369,70.3739901 L198.935369,33.2960601 L207.844209,30.2452201 L207.844209,67.5668201 C207.844209,71.5533801 209.130829,74.6237201 211.704059,76.7778301 C214.277289,78.9319301 217.610799,79.9651201 221.694829,79.8871501 C225.778859,79.7994201 230.155299,78.2203901 234.804659,75.1305701 L234.804659,31.5903201 L243.713499,31.5903201 L243.713499,80.0041101 Z" id="path48" fill="#646464"></path>
            <path d="M278.491119,85.7354001 C277.428689,85.8231201 276.453979,85.8621101 275.557249,85.8621101 C270.517999,85.8621101 266.589919,84.6632201 263.782759,82.2556901 C260.985339,79.8481601 259.581769,76.5244001 259.581769,72.2844201 L259.581769,37.1948901 L253.480089,37.1948901 L253.480089,31.5903201 L259.581769,31.5903201 L259.581769,16.7065101 L268.480859,13.5387001 L268.480859,31.5903201 L278.491119,31.5903201 L278.491119,37.1948901 L268.480859,37.1948901 L268.480859,72.0407401 C268.480859,75.3839901 269.377589,77.7525301 271.171059,79.1366201 C272.711099,80.2770301 275.157619,80.9300901 278.491119,81.0957901 L278.491119,85.7354001 Z" id="path50" fill="#646464"></path>
            <path d="M332.431509,85.0043701 L323.522669,85.0043701 L323.522669,50.6166401 C323.522669,47.1174301 322.703909,44.1055801 321.076159,41.5908301 C319.194969,38.7446801 316.582739,37.3216001 313.229749,37.3216001 C309.145709,37.3216001 304.038229,39.4757101 297.907329,43.7839301 L297.907329,85.0043701 L288.998479,85.0043701 L288.998479,2.80716 L297.907329,7.10542736e-15 L297.907329,37.4385701 C303.599629,33.2960601 309.818259,31.2199301 316.572989,31.2199301 C321.290589,31.2199301 325.111449,32.8087001 328.035569,35.9765101 C330.969449,39.1443101 332.431509,43.0918801 332.431509,47.8094701 L332.431509,85.0043701 L332.431509,85.0043701 Z" id="path52" fill="#646464"></path>
            <path d="M379.782869,57.2641501 C379.782869,51.6693201 378.720449,47.0492001 376.605319,43.3940401 C374.090579,38.9396201 370.181999,36.5905701 364.899069,36.3468901 C355.132489,36.9122301 350.258949,43.9106401 350.258949,57.3226301 C350.258949,63.4730501 351.272639,68.6097601 353.319519,72.7327801 C355.931749,77.9864601 359.850079,80.5791901 365.074519,80.4914701 C374.880089,80.4134901 379.782869,72.6743001 379.782869,57.2641501 Z M389.539719,57.3226301 C389.539719,65.2860101 387.502579,71.9140301 383.438039,77.2067001 C378.964129,83.1329301 372.784469,86.1057901 364.899069,86.1057901 C357.081909,86.1057901 350.989979,83.1329301 346.594039,77.2067001 C342.607479,71.9140301 340.619069,65.2860101 340.619069,57.3226301 C340.619069,49.8368701 342.773179,43.5402501 347.081389,38.4132801 C351.633289,32.9744001 357.617999,30.2452201 365.016029,30.2452201 C372.414079,30.2452201 378.437769,32.9744001 383.077399,38.4132801 C387.385599,43.5402501 389.539719,49.8368701 389.539719,57.3226301 Z" id="path54" fill="#646464"></path>
            <path d="M440.614459,85.0043701 L431.705619,85.0043701 L431.705619,48.6672201 C431.705619,44.6806601 430.506729,41.5713401 428.108949,39.3295001 C425.711159,37.0974201 422.514119,36.0154901 418.527559,36.1032201 C414.297329,36.1812001 410.271769,37.5652801 406.450919,40.2457301 L406.450919,85.0043701 L397.542079,85.0043701 L397.542079,39.1443101 C402.669049,35.4111801 407.386639,32.9744001 411.694839,31.8339901 C415.759389,30.7715601 419.346319,30.2452201 422.436149,30.2452201 C424.551269,30.2452201 426.539669,30.4499101 428.411109,30.8592801 C431.910319,31.6682901 434.756459,33.1693401 436.949559,35.3721901 C439.396069,37.8089601 440.614459,40.7330901 440.614459,44.1543101 L440.614459,85.0043701 Z" id="path56" fill="#646464"></path>
            <path d="M54.9187854,3.13634 C50.3351324,3.1576383 45.9578464,3.5485577 42.1062854,4.23009 C30.7600694,6.2345938 28.7000364,10.4301921 28.7000354,18.1675901 L28.7000354,28.3863401 L55.5125354,28.3863401 L55.5125354,31.7925901 L28.7000354,31.7925901 L18.6375354,31.7925901 C10.8450764,31.7925901 4.02177622,36.4763071 1.88753522,45.3863401 C-0.574284781,55.5993061 -0.683479881,61.9723631 1.88753522,72.6363401 C3.79346352,80.5741921 8.34507842,86.2300901 16.1375354,86.2300901 L25.3562854,86.2300901 L25.3562854,73.9800901 C25.3562854,65.1301881 33.0134294,57.3238421 42.1062854,57.3238401 L68.8875354,57.3238401 C76.3424864,57.3238401 82.2937854,51.1856761 82.2937854,43.6988401 L82.2937854,18.1675901 C82.2937854,10.9012511 76.1638054,5.4428126 68.8875354,4.23009 C64.2815484,3.4633647 59.5024384,3.1150417 54.9187854,3.13634 Z M40.4187854,11.3550901 C43.1883324,11.3550901 45.4500354,13.6537361 45.4500354,16.4800901 C45.4500354,19.2964261 43.1883324,21.5738401 40.4187854,21.5738401 C37.6393094,21.5738401 35.3875354,19.2964251 35.3875354,16.4800901 C35.3875354,13.6537371 37.6393094,11.3550901 40.4187854,11.3550901 Z" id="path1948" fill="url(#linearGradient-1)"></path>
            <path d="M85.6375354,31.7925901 L85.6375354,43.6988401 C85.6375354,52.9295951 77.8116404,60.6988391 68.8875354,60.6988401 L42.1062854,60.6988401 C34.7704524,60.6988401 28.7000354,66.9773231 28.7000354,74.3238401 L28.7000354,99.8550871 C28.7000354,107.121427 35.0186234,111.395407 42.1062854,113.480087 C50.5936164,115.975697 58.7325224,116.426717 68.8875354,113.480087 C75.6376904,111.525697 82.2937884,107.592477 82.2937854,99.8550871 L82.2937854,89.6363401 L55.5125354,89.6363401 L55.5125354,86.2300901 L82.2937854,86.2300901 L95.7000354,86.2300901 C103.492499,86.2300901 106.396289,80.7946821 109.106279,72.6363401 C111.905609,64.2374541 111.786499,56.1605641 109.106279,45.3863401 C107.180499,37.6288991 103.502409,31.7925901 95.7000354,31.7925901 L85.6375354,31.7925901 Z M70.5750354,96.4488401 C73.3545134,96.4488401 75.6062854,98.7262571 75.6062854,101.542587 C75.6062854,104.368937 73.3545104,106.667587 70.5750354,106.667587 C67.8054854,106.667587 65.5437854,104.368937 65.5437854,101.542587 C65.5437854,98.7262571 67.8054824,96.4488401 70.5750354,96.4488401 Z" id="path1950" fill="url(#linearGradient-2)"></path>
            <path d="M457.963029,23.6477501 L459.524979,23.6477501 L459.524979,13.8515101 L463.225109,13.8515101 L463.225109,12.6838501 L454.262899,12.6838501 L454.262899,13.8515101 L457.963029,13.8515101 L457.963029,23.6477501 M464.610049,23.6477501 L465.944519,23.6477501 L465.944519,14.7007201 L468.840929,23.6466261 L470.326619,23.6466261 L473.344779,14.7310501 L473.344779,23.6477501 L474.800569,23.6477501 L474.800569,12.6838501 L472.874679,12.6838501 L469.576369,22.0767071 L466.763399,12.6838501 L464.610049,12.6838501 L464.610049,23.6477501" id="text3004" fill="#646464"></path>
            <path d="M91.7477402,130.836207 C91.7477402,133.325387 84.8993347,135.625485 73.7822512,136.870076 C62.6651677,138.114666 48.9683559,138.114666 37.8512724,136.870076 C26.7341889,135.625485 19.8857833,133.325387 19.8857833,130.836207 C19.8857833,128.347026 26.7341888,126.046928 37.8512723,124.802337 C48.9683559,123.557747 62.6651677,123.557747 73.7822512,124.802337 C84.8993348,126.046928 91.7477402,128.347026 91.7477402,130.836207 Z" id="path1894" fill="url(#radialGradient-3)" opacity="0.44382019"></path>
        </g>
    </g>
</svg>