<?xml version="1.0" encoding="UTF-8"?>
<svg width="100px" height="100px" viewBox="0 0 100 100" version="1.1"
    xmlns="http://www.w3.org/2000/svg"
    xmlns:xlink="http://www.w3.org/1999/xlink">
    <title>bookmark</title>
    <g id="bookmark" stroke="none" stroke-width="1" fill="none" fill-rule="evenodd">
        <path d="M81.75,100 L81.5546875,100 C83.2473958,100 84.7122396,99.3815104 85.9492188,98.1445312 C87.1861979,96.9075521 87.8046875,95.4427083 87.8046875,93.75 L87.8046875,6.25 C87.8046875,5.04557292 87.4873047,3.93880208 86.8525391,2.9296875 C86.2177734,1.92057292 85.3632812,1.13932292 84.2890625,0.5859375 C83.4101562,0.1953125 82.53125,0 81.6523438,0 C80.2526042,0 78.9505208,0.455729167 77.7460938,1.3671875 L50.4023438,23.2421875 L23.0585938,1.3671875 C21.8541667,0.455729167 20.5520833,0 19.1523438,0 C18.2734375,0 17.3945312,0.1953125 16.515625,0.5859375 C15.4414062,1.13932292 14.5869141,1.92057292 13.9521484,2.9296875 C13.3173828,3.93880208 13,5.04557292 13,6.25 L13,93.75 C13,95.4427083 13.6184896,96.9075521 14.8554688,98.1445312 C16.0924479,99.3815104 17.5572917,100 19.25,100 L81.75,100 Z" id="Path" fill="currentColor" fill-rule="nonzero" transform="translate(50.402344, 50.000000) rotate(180.000000) translate(-50.402344, -50.000000) "></path>
    </g>
</svg>
