<?xml version="1.0" encoding="UTF-8"?>
<svg width="100px" height="100px" viewBox="0 0 100 100" version="1.1"
    xmlns="http://www.w3.org/2000/svg"
    xmlns:xlink="http://www.w3.org/1999/xlink">
    <title>briefcase</title>
    <g id="briefcase" stroke="none" stroke-width="1" fill="none" fill-rule="evenodd">
        <path d="M56.25,49.75 L56.25,56 L43.75,56 L43.75,49.75 L0,49.75 L0,93.5 L100,93.5 L100,49.75 L56.25,49.75 Z M0,24.75 L0,43.5 L43.75,43.5 L43.75,37.25 L56.25,37.25 L56.25,43.5 L100,43.5 L100,24.75 L68.75,24.75 C68.75,14.3753125 60.3746875,6 50,6 C39.6253125,6 31.25,14.3753125 31.25,24.75 L0,24.75 Z M62.5,24.75 L37.5,24.75 C37.5,17.875 43.125,12.25 50,12.25 C56.875,12.25 62.5,17.875 62.5,24.75 Z" id="Shape" fill="currentColor" fill-rule="nonzero"></path>
    </g>
</svg>
