<?xml version="1.0" encoding="UTF-8"?>
<svg width="100px" height="100px" viewBox="0 0 100 100" version="1.1"
    xmlns="http://www.w3.org/2000/svg"
    xmlns:xlink="http://www.w3.org/1999/xlink">
    <title>chevron-left</title>
    <g id="chevron-left" stroke="none" stroke-width="1" fill="none" fill-rule="evenodd">
        <path d="M69.0150097,0 C69.6093075,0 70.180124,0.2361537 70.6000441,0.6568344 L79.792763,9.8503541 C80.6685555,10.7261466 80.6685555,12.145431 79.792763,13.0204228 L42.8012876,50.0118982 L79.792763,87.0053754 C80.6685555,87.8811679 80.6685555,89.3004523 79.792763,90.1754442 L70.6000441,99.3689638 C69.7594434,100.209565 68.270536,100.211126 67.4299753,99.3689638 L19.656743,51.5997351 C19.110929,51.0539212 18.9045022,50.2962155 19.0405654,49.5909172 C19.1203255,49.1639709 19.3267644,48.7550008 19.656743,48.4242415 L67.4299753,0.6570146 C67.8039315,0.283058423 68.2964977,0.0547905803 68.8181862,0.00868113609 L69.0150097,0 Z" id="Path" fill="currentColor" fill-rule="nonzero"></path>
    </g>
</svg>
