<?xml version="1.0" encoding="UTF-8"?>
<svg width="100px" height="100px" viewBox="0 0 100 100" version="1.1" xmlns="http://www.w3.org/2000/svg" xmlns:xlink="http://www.w3.org/1999/xlink">
    <title>chevron-right</title>
    <g id="chevron-right" stroke="none" stroke-width="1" fill="none" fill-rule="evenodd">
        <path d="M30.4345977,100 C29.8402999,100 29.2694834,99.7638463 28.8495633,99.3431656 L19.6568444,90.1496459 C18.7810519,89.2738534 18.7810519,87.854569 19.6568444,86.9795772 L56.6483198,49.9881018 L19.6568444,12.9946246 C18.7810519,12.1188321 18.7810519,10.6995477 19.6568444,9.82455585 L28.8495633,0.631036191 C29.690164,-0.209564509 31.1790714,-0.211125922 32.0196321,0.631036191 L79.7928644,48.4002649 C80.3386784,48.9460788 80.5451052,49.7037845 80.409042,50.4090828 C80.3292819,50.8360291 80.122843,51.2449992 79.7928644,51.5757585 L32.0196321,99.3429854 C31.5989314,99.7636861 31.0281148,100 30.4345977,100 L30.4345977,100 Z" id="Path" fill="#000000" fill-rule="nonzero"></path>
    </g>
</svg>