<?xml version="1.0" encoding="UTF-8"?>
<svg width="100px" height="100px" viewBox="0 0 100 100" version="1.1"
    xmlns="http://www.w3.org/2000/svg"
    xmlns:xlink="http://www.w3.org/1999/xlink">
    <title>clock</title>
    <g id="clock" stroke="none" stroke-width="1" fill="none" fill-rule="evenodd">
        <path d="M7.10542736e-15,50 C7.10542736e-15,43.1966146 1.31835938,36.710612 3.95507813,30.5419922 C6.59179688,24.3733724 10.139974,19.0592448 14.5996094,14.5996094 C19.0592448,10.139974 24.3733724,6.59179688 30.5419922,3.95507812 C36.710612,1.31835938 43.1966146,0 50,0 C56.8033854,0 63.289388,1.31835938 69.4580078,3.95507812 C75.6266276,6.59179688 80.9407552,10.139974 85.4003906,14.5996094 C89.860026,19.0592448 93.4082031,24.3733724 96.0449219,30.5419922 C98.6816406,36.710612 100,43.1966146 100,50 C100,56.8033854 98.6816406,63.289388 96.0449219,69.4580078 C93.4082031,75.6266276 89.860026,80.9407552 85.4003906,85.4003906 C80.9407552,89.860026 75.6266276,93.4082031 69.4580078,96.0449219 C63.289388,98.6816406 56.8033854,100 50,100 C43.1966146,100 36.710612,98.6816406 30.5419922,96.0449219 C24.3733724,93.4082031 19.0592448,89.860026 14.5996094,85.4003906 C10.139974,80.9407552 6.59179688,75.6266276 3.95507813,69.4580078 C1.31835938,63.289388 7.10542736e-15,56.8033854 7.10542736e-15,50 Z M73.9257812,33.984375 L74.0234375,34.0820312 C72.8190104,32.2591146 71.09375,31.3476562 68.8476562,31.3476562 C67.578125,31.3476562 66.4388021,31.6731771 65.4296875,32.3242188 L46.6796875,44.8242188 C44.7916667,46.09375 43.8476563,47.8190104 43.8476563,50 L43.8476563,81.25 C43.8476563,82.9427083 44.4661458,84.4075521 45.703125,85.6445312 C46.9401042,86.8815104 48.4049479,87.5 50.0976563,87.5 C51.7903646,87.5 53.2552083,86.8815104 54.4921875,85.6445312 C55.7291667,84.4075521 56.3476563,82.9427083 56.3476563,81.25 L56.3476563,53.3203125 L72.265625,42.6757812 C73.6979167,41.6992188 74.5768229,40.3645833 74.9023438,38.671875 C75.2278646,36.9791667 74.9023438,35.4166667 73.9257812,33.984375 Z" id="Shape" fill="currentColor" fill-rule="nonzero" transform="translate(50.000000, 50.000000) scale(-1, 1) rotate(180.000000) translate(-50.000000, -50.000000) "></path>
    </g>
</svg>
