<?xml version="1.0" encoding="UTF-8"?>
<svg width="100px" height="100px" viewBox="0 0 100 100" version="1.1"
    xmlns="http://www.w3.org/2000/svg"
    xmlns:xlink="http://www.w3.org/1999/xlink">
    <title>dribbble</title>
    <g id="dribbble" stroke="none" stroke-width="1" fill="none" fill-rule="evenodd">
        <path d="M50,100 C56.7888663,100 63.2637475,98.6761711 69.4246436,96.0285132 C75.5855397,93.3808554 80.8978276,89.8251867 85.3615071,85.3615071 C89.8251867,80.8978276 93.3808554,75.5855397 96.0285132,69.4246436 C98.6761711,63.2637475 100,56.7888663 100,50 C100,43.2111337 98.6761711,36.7362525 96.0285132,30.5753564 C93.3808554,24.4144603 89.8251867,19.1021724 85.3615071,14.6384929 C80.8978276,10.1748133 75.5855397,6.6191446 69.4246436,3.97148676 C63.2637475,1.32382892 56.7888663,0 50,0 C43.2111337,0 36.7362525,1.32382892 30.5753564,3.97148676 C24.4144603,6.6191446 19.1021724,10.1748133 14.6384929,14.6384929 C10.1748133,19.1021724 6.6191446,24.4144603 3.97148676,30.5753564 C1.32382892,36.7362525 0,43.2111337 0,50 C0,56.7888663 1.32382892,63.2637475 3.97148676,69.4246436 C6.6191446,75.5855397 10.1748133,80.8978276 14.6384929,85.3615071 C19.1021724,89.8251867 24.4144603,93.3808554 30.5753564,96.0285132 C36.7362525,98.6761711 43.2111337,100 50,100 Z M37.7800407,29.2260692 L37.7800407,61.8126273 L27.5967413,61.8126273 L27.5967413,29.2260692 L37.7800407,29.2260692 Z M32.688391,65.885947 L32.892057,65.7841141 C34.5213849,65.7841141 35.8282417,66.2678208 36.8126273,67.2352342 C37.7970129,68.2026477 38.2892057,69.4161575 38.2892057,70.8757637 C38.221317,72.33537 37.703666,73.5488798 36.7362525,74.5162933 C35.7688391,75.4837067 34.4874406,75.9674134 32.892057,75.9674134 C31.2966735,75.9674134 29.9983028,75.4837067 28.996945,74.5162933 C27.9955872,73.5488798 27.4949084,72.33537 27.4949084,70.8757637 C27.4949084,69.4501018 27.970129,68.2620502 28.9205703,67.311609 C29.8710115,66.3611677 31.1269518,65.885947 32.688391,65.885947 Z M75.0509165,29.1242363 L75.1527495,29.2260692 L75.1527495,48.4725051 C75.1527495,53.0889341 74.0835031,56.5852003 71.9450102,58.9613035 C69.8065173,61.3374067 67.00611,62.5254582 63.5437882,62.5254582 C61.065852,62.5254582 58.9782756,61.9823489 57.2810591,60.8961303 C55.5838425,59.8099117 54.3109301,58.5879158 53.4623218,57.2301426 L53.2586558,57.2301426 L52.7494908,61.7107943 L43.9918534,61.7107943 C44.1276307,57.7732519 44.1955193,54.3109301 44.1955193,51.3238289 L44.1955193,29.1242363 L54.3788187,29.1242363 L54.3788187,47.9633401 C54.3788187,49.0156144 54.5145961,49.8642227 54.7861507,50.509165 C55.7705363,53.0210455 57.4677529,54.2769857 59.8778004,54.2769857 C63.2722335,54.2769857 64.9694501,51.9348269 64.9694501,47.2505092 L64.9694501,29.1242363 L75.0509165,29.1242363 Z" id="Shape" fill="currentColor" fill-rule="nonzero" transform="translate(50.000000, 50.000000) scale(-1, 1) rotate(180.000000) translate(-50.000000, -50.000000) "></path>
    </g>
</svg>
