<?xml version="1.0" encoding="UTF-8"?>
<svg width="100px" height="100px" viewBox="0 0 100 100" version="1.1"
    xmlns="http://www.w3.org/2000/svg"
    xmlns:xlink="http://www.w3.org/1999/xlink">
    <title>facebook</title>
    <g id="facebook" stroke="none" stroke-width="1" fill="none" fill-rule="evenodd">
        <path d="M50,100 C56.7888663,100 63.2637475,98.6761711 69.4246436,96.0285132 C75.5855397,93.3808554 80.8978276,89.8251867 85.3615071,85.3615071 C89.8251867,80.8978276 93.3808554,75.5855397 96.0285132,69.4246436 C98.6761711,63.2637475 100,56.7888663 100,50 C100,43.2111337 98.6761711,36.7362525 96.0285132,30.5753564 C93.3808554,24.4144603 89.8251867,19.1021724 85.3615071,14.6384929 C80.8978276,10.1748133 75.5855397,6.6191446 69.4246436,3.97148676 C63.2637475,1.32382892 56.7888663,0 50,0 C43.2111337,0 36.7362525,1.32382892 30.5753564,3.97148676 C24.4144603,6.6191446 19.1021724,10.1748133 14.6384929,14.6384929 C10.1748133,19.1021724 6.6191446,24.4144603 3.97148676,30.5753564 C1.32382892,36.7362525 0,43.2111337 0,50 C0,56.7888663 1.32382892,63.2637475 3.97148676,69.4246436 C6.6191446,75.5855397 10.1748133,80.8978276 14.6384929,85.3615071 C19.1021724,89.8251867 24.4144603,93.3808554 30.5753564,96.0285132 C36.7362525,98.6761711 43.2111337,100 50,100 Z M61.8126273,65.3767821 L61.8126273,73.6252546 L54.2769857,73.6252546 C51.1880516,73.6252546 48.6167685,72.4796334 46.5631365,70.188391 C44.5095044,67.8971487 43.4826884,65.1052274 43.4826884,61.8126273 L43.4826884,57.2301426 L35.4378819,57.2301426 L35.4378819,49.490835 L43.4826884,49.490835 L43.4826884,26.2729124 L52.3421589,26.2729124 L52.3421589,49.490835 L61.7107943,49.490835 L61.7107943,57.2301426 L52.3421589,57.2301426 L52.3421589,62.6272912 C52.3421589,63.3740665 52.5458248,64.0190088 52.9531568,64.5621181 C53.3604888,65.1052274 53.8017651,65.3767821 54.2769857,65.3767821 L61.8126273,65.3767821 Z" id="Shape" fill="currentColor" fill-rule="nonzero" transform="translate(50.000000, 50.000000) scale(-1, 1) rotate(180.000000) translate(-50.000000, -50.000000) "></path>
    </g>
</svg>
