<?xml version="1.0" encoding="UTF-8"?>
<svg width="100px" height="100px" viewBox="0 0 100 100" version="1.1"
    xmlns="http://www.w3.org/2000/svg"
    xmlns:xlink="http://www.w3.org/1999/xlink">
    <title>github</title>
    <g id="github" stroke="none" stroke-width="1" fill="none" fill-rule="evenodd">
        <path d="M50,100 C56.7888663,100 63.2637475,98.6761711 69.4246436,96.0285132 C75.5855397,93.3808554 80.8978276,89.8251867 85.3615071,85.3615071 C89.8251867,80.8978276 93.3808554,75.5855397 96.0285132,69.4246436 C98.6761711,63.2637475 100,56.7888663 100,50 C100,43.2111337 98.6761711,36.7362525 96.0285132,30.5753564 C93.3808554,24.4144603 89.8251867,19.1021724 85.3615071,14.6384929 C80.8978276,10.1748133 75.5855397,6.6191446 69.4246436,3.97148676 C63.2637475,1.32382892 56.7888663,0 50,0 C43.2111337,0 36.7362525,1.32382892 30.5753564,3.97148676 C24.4144603,6.6191446 19.1021724,10.1748133 14.6384929,14.6384929 C10.1748133,19.1021724 6.6191446,24.4144603 3.97148676,30.5753564 C1.32382892,36.7362525 0,43.2111337 0,50 C0,56.7888663 1.32382892,63.2637475 3.97148676,69.4246436 C6.6191446,75.5855397 10.1748133,80.8978276 14.6384929,85.3615071 C19.1021724,89.8251867 24.4144603,93.3808554 30.5753564,96.0285132 C36.7362525,98.6761711 43.2111337,100 50,100 Z M70.3665988,58.9613035 L70.5702648,58.5539715 C72.4711473,59.9456891 74.1004752,61.6429056 75.4582485,63.6456212 C73.7270876,62.8309572 71.826205,62.3217923 69.7556008,62.1181263 C71.8940937,63.4080109 73.3197556,65.2410048 74.0325866,67.6171079 C72.029871,66.4630007 69.9253225,65.6822811 67.7189409,65.2749491 C65.7162254,67.3794976 63.3061779,68.4317719 60.4887984,68.4317719 C57.7732519,68.4317719 55.4650373,67.4813306 53.5641548,65.5804481 C51.6632722,63.6795655 50.712831,61.371351 50.712831,58.6558045 C50.712831,57.8750849 50.814664,57.1283096 51.0183299,56.4154786 C47.0128988,56.6191446 43.2535642,57.6374745 39.7403259,59.4704684 C36.2270876,61.3034623 33.2315003,63.7474542 30.7535642,66.802444 C29.8710115,65.2410048 29.4297352,63.5777325 29.4297352,61.8126273 C29.4297352,60.1154107 29.820095,58.5369993 30.6008147,57.0773931 C31.3815343,55.6177868 32.4507807,54.4467074 33.808554,53.5641548 C32.1452817,53.6659878 30.6517312,54.0733198 29.3279022,54.7861507 C29.3279022,52.4100475 30.0661914,50.3224711 31.5427699,48.5234216 C33.0193483,46.724372 34.8947726,45.5872369 37.1690428,45.1120163 C36.3543788,44.9083503 35.4718262,44.8065173 34.5213849,44.8065173 C34.114053,44.8065173 33.503055,44.874406 32.688391,45.0101833 C33.299389,43.0414121 34.4534963,41.4205703 36.1507128,40.1476578 C37.8479294,38.8747454 39.7488119,38.221317 41.8533605,38.1873727 C38.32315,35.4039375 34.2498303,34.01222 29.6334012,34.01222 C28.5471826,34.01222 27.7325187,34.0461643 27.1894094,34.114053 C31.7718941,31.1269518 36.8295995,29.6334012 42.3625255,29.6334012 C46.7073999,29.6334012 50.6958588,30.4820095 54.3279022,32.1792261 C57.9599457,33.8764426 60.9131025,36.0913103 63.1873727,38.8238289 C65.4616429,41.5563476 67.2267481,44.5604209 68.4826884,47.8360489 C69.7386286,51.1116768 70.3665988,54.4127631 70.3665988,57.7393075 L70.3665988,58.9613035 Z" id="Shape" fill="currentColor" fill-rule="nonzero" transform="translate(50.000000, 50.000000) scale(-1, 1) rotate(180.000000) translate(-50.000000, -50.000000) "></path>
    </g>
</svg>
