<?xml version="1.0" encoding="UTF-8"?>
<svg width="100px" height="100px" viewBox="0 0 100 100" version="1.1"
    xmlns="http://www.w3.org/2000/svg"
    xmlns:xlink="http://www.w3.org/1999/xlink">
    <title>hamburger</title>
    <g id="hamburger" stroke="none" stroke-width="1" fill="none" fill-rule="evenodd">
        <path d="M92.877095,56.877095 C94.8324022,56.877095 96.5083799,56.1787709 97.9050279,54.7821229 C99.301676,53.3854749 100,51.7094972 100,49.7541899 C100,47.7988827 99.301676,46.122905 97.9050279,44.726257 C96.5083799,43.3296089 94.8324022,42.6312849 92.877095,42.6312849 L7.12290503,42.6312849 C5.16759777,42.6312849 3.49162011,43.3296089 2.09497207,44.726257 C0.698324022,46.122905 0,47.7988827 0,49.7541899 C0,51.7094972 0.698324022,53.3854749 2.09497207,54.7821229 C3.49162011,56.1787709 5.16759777,56.877095 7.12290503,56.877095 L92.877095,56.877095 Z M7.12290503,71.122905 C5.16759777,71.122905 3.49162011,71.8212291 2.09497207,73.2178771 C0.698324022,74.6145251 0,76.2905028 0,78.2458101 C0,80.2011173 0.698324022,81.877095 2.09497207,83.273743 C3.49162011,84.6703911 5.16759777,85.3687151 7.12290503,85.3687151 L92.877095,85.3687151 C94.8324022,85.3687151 96.5083799,84.6703911 97.9050279,83.273743 C99.301676,81.877095 100,80.2011173 100,78.2458101 C100,76.2905028 99.301676,74.6145251 97.9050279,73.2178771 C96.5083799,71.8212291 94.8324022,71.122905 92.877095,71.122905 L7.12290503,71.122905 Z M92.877095,28.2458101 C94.8324022,28.2458101 96.5083799,27.547486 97.9050279,26.150838 C99.301676,24.7541899 100,23.0782123 100,21.122905 C100,19.1675978 99.301676,17.4916201 97.9050279,16.0949721 C96.5083799,14.698324 94.8324022,14 92.877095,14 L7.12290503,14 C5.16759777,14 3.49162011,14.698324 2.09497207,16.0949721 C0.698324022,17.4916201 0,19.1675978 0,21.122905 C0,23.0782123 0.698324022,24.7541899 2.09497207,26.150838 C3.49162011,27.547486 5.16759777,28.2458101 7.12290503,28.2458101 L92.877095,28.2458101 Z" id="Shape" fill="currentColor" fill-rule="nonzero"></path>
    </g>
</svg>
