<?xml version="1.0" encoding="UTF-8"?>
<svg width="100px" height="100px" viewBox="0 0 100 100" version="1.1"
    xmlns="http://www.w3.org/2000/svg"
    xmlns:xlink="http://www.w3.org/1999/xlink">
    <title>linkedin</title>
    <g id="linkedin" stroke="none" stroke-width="1" fill="none" fill-rule="evenodd">
        <path d="M50.6612411,49.9491353 L50.8646999,50.2543235 C48.9996609,49.6439471 47.1770092,48.8046796 45.3967447,47.7365209 C43.6164802,46.6683622 42.1414039,45.6341133 40.9715158,44.6337742 C39.8016277,43.6334351 38.6741268,42.5313666 37.5890132,41.3275687 C36.5038996,40.1237708 35.7409291,39.2166836 35.3001017,38.6063072 C34.8592743,37.9959308 34.4523567,37.4025093 34.0793489,36.8260427 C30.7561885,40.6578501 29.0946083,45.1339437 29.0946083,50.2543235 L29.0946083,50.5595117 C36.4191251,50.5595117 43.3367243,51.5089861 49.8474059,53.4079349 C50.7629705,51.4072567 51.2377077,50.3560529 51.2716175,50.2543235 L50.6612411,49.9491353 Z M62.8687691,65.6154629 L62.9704985,65.4120041 C62.5974907,64.9033571 62.114276,64.3523228 61.5208545,63.7589013 C60.927433,63.1654798 59.7999322,62.3177348 58.138352,61.2156663 C56.4767718,60.1135978 54.6286877,59.1726009 52.5940997,58.3926755 C50.5256019,62.1905731 48.0840963,66.0562903 45.2695829,69.9898271 C46.8633435,70.3289251 48.3214649,70.4984741 49.6439471,70.4984741 C54.6965073,70.4984741 59.1047813,68.8708037 62.8687691,65.6154629 Z M37.3346897,33.6724313 L37.2329603,33.7741607 C37.5720583,34.4184469 38.0128857,35.1051204 38.5554425,35.8341811 C39.0979993,36.5632418 39.9881316,37.6059681 41.2258393,38.9623601 C42.463547,40.3187521 44.1251272,41.6581892 46.2105799,42.9806714 C48.2960326,44.3031536 50.6273313,45.4052221 53.2044761,46.2868769 C55.3747033,40.5561207 56.7989149,35.4696507 57.4771109,31.0274669 C55.0356053,30.0101729 52.4245507,29.5015259 49.6439471,29.5015259 C45.0322143,29.5015259 40.9291285,30.8918277 37.3346897,33.6724313 Z M48.1180061,56.9684639 L48.2197355,56.8667345 C41.9464225,55.2390641 35.8426585,54.4252289 29.9084435,54.4252289 L29.8067141,54.4252289 C30.4849101,57.4432011 31.7904374,60.1814174 33.723296,62.6398779 C35.6561546,65.0983384 38.0128857,67.0057647 40.7934893,68.3621567 C43.2010851,65.1407257 45.6425907,61.3428281 48.1180061,56.9684639 Z M57.6805697,47.3041709 L57.8840285,47.3041709 C59.1047813,47.5076297 60.3933537,47.6093591 61.7497457,47.6093591 C64.8016277,47.6093591 67.5483215,47.2024415 69.9898271,46.3886063 C69.5150899,43.7436419 68.5486606,41.2682265 67.0905392,38.9623601 C65.6324178,36.6564937 63.7843337,34.7236351 61.5462869,33.1637843 C60.8341811,37.4703289 59.5456087,42.1837911 57.6805697,47.3041709 Z M49.9491353,99.8982706 C56.7310953,99.8982706 63.2163445,98.5757884 69.404883,95.930824 C75.5934215,93.2858596 80.9172601,89.7338081 85.3763988,85.2746694 C89.8355375,80.8155307 93.387589,75.508647 96.0325534,69.3540183 C98.6775178,63.1993896 100,56.7310953 100,49.9491353 C100,43.1671753 98.6775178,36.698881 96.0325534,30.5442523 C93.387589,24.3896236 89.8355375,19.0827399 85.3763988,14.6236012 C80.9172601,10.1644625 75.5934215,6.61241099 69.404883,3.96744659 C63.2163445,1.3224822 56.7310953,-1.42108547e-14 49.9491353,-1.42108547e-14 C43.1671753,-1.42108547e-14 36.698881,1.3224822 30.5442523,3.96744659 C24.3896236,6.61241099 19.0827399,10.1644625 14.6236012,14.6236012 C10.1644625,19.0827399 6.61241099,24.3896236 3.96744659,30.5442523 C1.3224822,36.698881 0,43.1671753 0,49.9491353 C0,56.7310953 1.3224822,63.1993896 3.96744659,69.3540183 C6.61241099,75.508647 10.1644625,80.8155307 14.6236012,85.2746694 C19.0827399,89.7338081 24.3896236,93.2858596 30.5442523,95.930824 C36.698881,98.5757884 43.1671753,99.8982706 49.9491353,99.8982706 Z M49.9491353,25.4323499 C54.3913191,25.4323499 58.4944049,26.525941 62.2583927,28.7131231 C66.0223805,30.9003052 68.9979654,33.8758901 71.1851475,37.6398779 C73.3723296,41.4038657 74.4659207,45.5069515 74.4659207,49.9491353 C74.4659207,54.3913191 73.3723296,58.4944049 71.1851475,62.2583927 C68.9979654,66.0223805 66.0223805,68.9979654 62.2583927,71.1851475 C58.4944049,73.3723296 54.3913191,74.4659207 49.9491353,74.4659207 C45.5069515,74.4659207 41.4038657,73.3723296 37.6398779,71.1851475 C33.8758901,68.9979654 30.9003052,66.0223805 28.7131231,62.2583927 C26.525941,58.4944049 25.4323499,54.3913191 25.4323499,49.9491353 C25.4323499,45.5069515 26.525941,41.4038657 28.7131231,37.6398779 C30.9003052,33.8758901 33.8758901,30.9003052 37.6398779,28.7131231 C41.4038657,26.525941 45.5069515,25.4323499 49.9491353,25.4323499 Z M54.7304171,54.7304171 L54.6286877,54.8321465 C56.7310953,55.6798915 58.6554764,56.7056629 60.4018311,57.9094608 C62.1481858,59.1132587 63.3858935,60.079688 64.1149542,60.8087487 C64.8440149,61.5378094 65.4120041,62.1905731 65.8189217,62.7670397 C68.6334351,59.2404205 70.0915565,55.1712445 70.1932859,50.5595117 C66.9379451,51.1020685 63.8182435,51.3733469 60.8341811,51.3733469 C59.2065107,51.3733469 57.6805697,51.2716175 56.2563581,51.0681587 L55.9511699,51.9837233 L54.7304171,54.7304171 Z" id="Shape" fill="currentColor" fill-rule="nonzero" transform="translate(50.000000, 49.949135) scale(-1, 1) rotate(180.000000) translate(-50.000000, -49.949135) "></path>
    </g>
</svg>
