<?xml version="1.0" encoding="UTF-8"?>
<svg width="100px" height="100px" viewBox="0 0 100 100" version="1.1"
    xmlns="http://www.w3.org/2000/svg"
    xmlns:xlink="http://www.w3.org/1999/xlink">
    <title>quote</title>
    <g id="quote" stroke="none" stroke-width="1" fill="none" fill-rule="evenodd">
        <path d="M-0.122319799,45.8467153 L-0.1953125,45.8467153 L-0.1953125,13 L40.0966583,13 L40.0966583,53.2919708 L24.8411839,53.2919708 C24.5005512,58.9610706 25.9969016,63.419708 29.3302349,66.6678832 C32.6635683,69.9160584 37.8338846,71.9537713 44.8411839,72.7810219 L41.7754904,87.8175182 C35.2791401,87.5255474 29.439724,86.5766423 24.2572422,84.9708029 C19.0747605,83.3649635 14.6708675,80.9318735 11.0455634,77.6715328 C7.37159748,74.3868613 4.59787485,70.1289538 2.72439553,64.8978102 C0.82658531,59.6423358 -0.122319799,53.2919708 -0.122319799,45.8467153 Z M54.549213,45.8467153 L54.6222057,45.8467153 L54.6222057,13 L94.9141766,13 L94.9141766,53.2919708 L79.6587021,53.2919708 C79.2207459,64.6058394 85.9360744,71.1021898 99.8046875,72.7810219 L96.520016,87.8175182 C90.0236656,87.5255474 84.1842495,86.5766423 79.0017678,84.9708029 C73.7706242,83.3406326 69.3910622,80.9075426 65.8630817,77.6715328 C62.2621084,74.3625304 59.4883858,70.1046229 57.5419138,64.8978102 C55.54678,59.5693431 54.549213,53.2189781 54.549213,45.8467153 Z" id="Shape" fill="currentColor" fill-rule="nonzero" transform="translate(49.804687, 50.408759) scale(-1, 1) rotate(180.000000) translate(-49.804687, -50.408759) "></path>
    </g>
</svg>
