<?xml version="1.0" encoding="UTF-8"?>
<svg width="100px" height="100px" viewBox="0 0 100 100" version="1.1"
    xmlns="http://www.w3.org/2000/svg"
    xmlns:xlink="http://www.w3.org/1999/xlink">
    <title>save</title>
    <g id="save" stroke="none" stroke-width="1" fill="none" fill-rule="evenodd">
        <path d="M33.9107143,45.0003968 L43.3329365,45.0003968 L43.3329365,6.66706349 C43.3329365,4.28531746 44.6040079,2.08412698 46.6664683,0.892857143 C48.7295635,-0.297619048 51.2702381,-0.297619048 53.3335317,0.892857143 C55.3960317,2.08410714 56.6670635,4.28531746 56.6670635,6.66706349 L56.6670635,45.0003968 L66.0892857,45.0003968 C67.50375,45.003497 68.8630952,45.5537897 69.8815476,46.5365476 C70.8991865,47.5193056 71.4975198,48.8577778 71.5510119,50.2722619 C71.6044901,51.6859524 71.1084524,53.0663095 70.1667659,54.1226587 L55.0780754,71.0442857 C53.7860714,72.485873 51.941369,73.3097619 50.0054563,73.3097619 C48.0693849,73.3097619 46.225496,72.4858929 44.933631,71.0442857 L29.8334325,54.1226587 C28.891746,53.0662698 28.3957143,51.6859524 28.4491865,50.2722619 C28.5026647,48.8577976 29.1010119,47.5192857 30.1186508,46.5365476 C31.1370635,45.5537897 32.4964286,45.0034921 33.9109127,45.0003968 L33.9107143,45.0003968 Z M13.3333333,99.9329365 L86.6666667,99.9329365 C90.202381,99.9329365 93.5940476,98.5285516 96.0944444,96.027381 C98.5954365,93.5269841 100,90.1355159 100,86.5996032 L100,31.5996032 C100,28.0630952 98.5956151,24.6714286 96.0944444,22.1710317 C93.5940476,19.6706349 90.2025794,18.2654762 86.6666667,18.2654762 L70,18.2654762 L70,31.5986111 L86.6666667,31.5993861 L86.6666667,86.5993861 L13.3333333,86.5993861 L13.3333333,31.5993861 L30,31.5993861 L30,18.2654762 L13.3333333,18.2654762 C9.79761905,18.2654762 6.40595238,19.6706349 3.90555556,22.1710317 C1.40456349,24.6714286 7.10542736e-15,28.0628968 7.10542736e-15,31.5996032 L7.10542736e-15,86.5996032 C7.10542736e-15,90.1353175 1.40438492,93.5269841 3.90555556,96.027381 C6.40595238,98.528373 9.79742063,99.9329365 13.3333333,99.9329365 L13.3333333,99.9329365 Z" id="Shape" fill="currentColor" fill-rule="nonzero"></path>
    </g>
</svg>
