<?xml version="1.0" encoding="UTF-8"?>
<svg width="100px" height="100px" viewBox="0 0 100 100" version="1.1"
    xmlns="http://www.w3.org/2000/svg"
    xmlns:xlink="http://www.w3.org/1999/xlink">
    <title>search</title>
    <g id="search" stroke="none" stroke-width="1" fill="none" fill-rule="evenodd">
        <path d="M99.9584543,88.6915743 L73.3281234,62.0612433 C77.5185789,55.7320752 79.9565971,48.1569318 79.9565971,40.002643 C79.9565971,17.9065403 62.048271,0 39.9575257,0 C17.8649946,0 -0.0415456528,17.9083261 -0.0415456528,40.0044289 C-0.0415456528,62.0933883 17.8667804,80.0070719 39.9575257,80.0070719 C48.1089571,80.0070719 55.6930297,77.5599459 62.016126,73.3723478 L88.6464569,100.002679 L99.9584543,88.6915743 Z M11.2918817,40.0080005 C11.2918817,24.1748116 24.1275512,11.3453925 39.9580615,11.3453925 C55.7912504,11.3453925 68.626027,24.1755259 68.626027,40.0080005 C68.626027,55.8411895 55.7903575,68.6777519 39.9580615,68.6777519 C24.1282656,68.6777519 11.2918817,55.8420824 11.2918817,40.0080005 Z" id="Shape" fill="currentColor" fill-rule="nonzero"></path>
    </g>
</svg>
