<?xml version="1.0" encoding="UTF-8"?>
<svg width="100px" height="100px" viewBox="0 0 100 100" version="1.1"
    xmlns="http://www.w3.org/2000/svg"
    xmlns:xlink="http://www.w3.org/1999/xlink">
    <title>tag</title>
    <g id="tag" stroke="none" stroke-width="1" fill="none" fill-rule="evenodd">
        <path d="M99.8046875,84.2773438 L100,84.375 C100,88.671875 98.4700521,92.3502604 95.4101562,95.4101562 C92.3502604,98.4700521 88.671875,100 84.375,100 L50,100 C48.3072917,100 46.8424479,99.3815104 45.6054688,98.1445312 L1.85546875,54.3945312 C0.618489583,53.1575521 0,51.6764323 0,49.9511719 C0,48.2259115 0.618489583,46.7447917 1.85546875,45.5078125 L45.6054688,1.7578125 C46.7773438,0.5859375 48.2096354,0 49.9023438,0 C51.5950521,0 53.0273438,0.5859375 54.1992188,1.7578125 L97.9492188,45.5078125 C99.1861979,46.7447917 99.8046875,48.2096354 99.8046875,49.9023438 L99.8046875,84.2773438 Z M78.125,84.375 C78.125,86.0677083 78.7434896,87.5325521 79.9804688,88.7695312 C81.2174479,90.0065104 82.6822917,90.625 84.375,90.625 C86.0677083,90.625 87.5325521,90.0065104 88.7695312,88.7695312 C90.0065104,87.5325521 90.625,86.0677083 90.625,84.375 C90.625,82.6822917 90.0065104,81.2174479 88.7695312,79.9804688 C87.5325521,78.7434896 86.0677083,78.125 84.375,78.125 C82.6822917,78.125 81.2174479,78.7434896 79.9804688,79.9804688 C78.7434896,81.2174479 78.125,82.6822917 78.125,84.375 Z" id="Shape" fill="currentColor" fill-rule="nonzero" transform="translate(50.000000, 50.000000) scale(-1, 1) rotate(180.000000) translate(-50.000000, -50.000000) "></path>
    </g>
</svg>
