<?xml version="1.0" encoding="UTF-8"?>
<svg width="100px" height="100px" viewBox="0 0 100 100" version="1.1"
    xmlns="http://www.w3.org/2000/svg"
    xmlns:xlink="http://www.w3.org/1999/xlink">
    <title>twitter</title>
    <g id="twitter" stroke="none" stroke-width="1" fill="none" fill-rule="evenodd">
        <path d="M49.898167,50.305499 L50,50.305499 C51.0862186,50.305499 52.5543109,50.3649016 54.404277,50.4837067 C56.254243,50.6025119 57.688391,50.6788866 58.706721,50.712831 C59.7250509,50.7467753 60.8367278,50.619484 62.0417515,50.3309572 C63.2467753,50.0424304 64.2226748,49.5587237 64.9694501,48.8798371 C66.802444,47.1486762 67.7189409,45.0441276 67.7189409,42.5661914 C67.7189409,40.6992532 67.413442,39.0868975 66.802444,37.7291242 C66.191446,36.371351 65.3937542,35.3105906 64.4093686,34.5468432 C63.424983,33.7830957 62.1266124,33.1805838 60.5142566,32.7393075 C58.9019009,32.2980312 57.3065173,32.0095044 55.7281059,31.8737271 C54.1496945,31.7379498 52.2403259,31.6700611 50,31.6700611 L49.898167,31.6700611 C47.6578411,31.6700611 45.7484725,31.7379498 44.1700611,31.8737271 C42.5916497,32.0095044 40.9962661,32.2980312 39.3839104,32.7393075 C37.7715547,33.1805838 36.473184,33.7830957 35.4887984,34.5468432 C34.5044128,35.3105906 33.706721,36.371351 33.095723,37.7291242 C32.4847251,39.0868975 32.1792261,40.6992532 32.1792261,42.5661914 C32.1792261,45.0441276 33.095723,47.1486762 34.9287169,48.8798371 C35.6754922,49.5587237 36.6513917,50.0424304 37.8564155,50.3309572 C39.0614392,50.619484 40.1731161,50.7467753 41.191446,50.712831 C42.209776,50.6788866 43.643924,50.6025119 45.49389,50.4837067 C47.3438561,50.3649016 48.8119484,50.305499 49.898167,50.305499 L49.898167,50.305499 Z M41.5478615,37.0672098 C42.4983028,37.0672098 43.3129667,37.5339443 43.9918534,38.4674134 C44.67074,39.4008826 45.0101833,40.5295316 45.0101833,41.8533605 C45.0101833,43.1771894 44.67074,44.3058384 43.9918534,45.2393075 C43.3129667,46.1727766 42.4983028,46.6395112 41.5478615,46.6395112 C40.5974202,46.6395112 39.7827563,46.1727766 39.1038697,45.2393075 C38.424983,44.3058384 38.0855397,43.1771894 38.0855397,41.8533605 C38.0855397,40.5295316 38.424983,39.4008826 39.1038697,38.4674134 C39.7827563,37.5339443 40.5974202,37.0672098 41.5478615,37.0672098 Z M58.2484725,37.0672098 L58.3503055,37.0672098 C59.3007468,37.0672098 60.1154107,37.5339443 60.7942974,38.4674134 C61.473184,39.4008826 61.8126273,40.5295316 61.8126273,41.8533605 C61.8126273,43.1771894 61.473184,44.3058384 60.7942974,45.2393075 C60.1154107,46.1727766 59.3007468,46.6395112 58.3503055,46.6395112 C57.3998642,46.6395112 56.5852003,46.1727766 55.9063136,45.2393075 C55.227427,44.3058384 54.8879837,43.1771894 54.8879837,41.8533605 C54.8879837,40.5295316 55.2189409,39.4008826 55.8808554,38.4674134 C56.5427699,37.5339443 57.3319756,37.0672098 58.2484725,37.0672098 Z M50,100 C56.7888663,100 63.2637475,98.6761711 69.4246436,96.0285132 C75.5855397,93.3808554 80.8978276,89.8251867 85.3615071,85.3615071 C89.8251867,80.8978276 93.3808554,75.5855397 96.0285132,69.4246436 C98.6761711,63.2637475 100,56.7888663 100,50 C100,43.2111337 98.6761711,36.7362525 96.0285132,30.5753564 C93.3808554,24.4144603 89.8251867,19.1021724 85.3615071,14.6384929 C80.8978276,10.1748133 75.5855397,6.6191446 69.4246436,3.97148676 C63.2637475,1.32382892 56.7888663,0 50,0 C43.2111337,0 36.7362525,1.32382892 30.5753564,3.97148676 C24.4144603,6.6191446 19.1021724,10.1748133 14.6384929,14.6384929 C10.1748133,19.1021724 6.6191446,24.4144603 3.97148676,30.5753564 C1.32382892,36.7362525 0,43.2111337 0,50 C0,56.7888663 1.32382892,63.2637475 3.97148676,69.4246436 C6.6191446,75.5855397 10.1748133,80.8978276 14.6384929,85.3615071 C19.1021724,89.8251867 24.4144603,93.3808554 30.5753564,96.0285132 C36.7362525,98.6761711 43.2111337,100 50,100 Z M54.5824847,29.4297352 L54.4806517,29.4297352 C55.32926,29.4297352 56.1184657,29.4467074 56.8482688,29.4806517 C57.578072,29.5145961 58.6558045,29.6673456 60.0814664,29.9389002 C61.5071283,30.2104549 62.7885268,30.5753564 63.9256619,31.0336049 C65.062797,31.4918534 66.293279,32.2046843 67.6171079,33.1720978 C68.9409369,34.1395112 70.0526137,35.2766463 70.9521385,36.5835031 C71.8516633,37.8903598 72.6069246,39.5875764 73.2179226,41.6751527 C73.8289206,43.7627291 74.1344196,46.0964019 74.1344196,48.6761711 C74.1344196,52.6137135 72.8105906,56.0081466 70.1629328,58.8594705 C70.2647658,59.3686354 70.3326544,60.1238968 70.3665988,61.1252546 C70.4005431,62.1266124 70.2562797,63.5353021 69.9338086,65.3513238 C69.6113374,67.1673456 69.1446029,68.8730482 68.5336049,70.4684318 C68.1602172,70.4344874 67.6425662,70.3411405 66.9806517,70.188391 C66.3187373,70.0356415 64.9439919,69.5010183 62.8564155,68.5845214 C60.7688391,67.6680244 58.6558045,66.4630007 56.5173116,64.9694501 C54.9898167,65.3767821 52.7834352,65.5804481 49.898167,65.5804481 C47.0128988,65.5804481 44.8065173,65.3767821 43.2790224,64.9694501 C41.1405295,66.4630007 39.0699253,67.6680244 37.0672098,68.5845214 C35.0644942,69.5010183 33.604888,70.0441276 32.688391,70.2138493 L31.2627291,70.4684318 C30.6517312,68.8730482 30.1849966,67.1673456 29.8625255,65.3513238 C29.5400543,63.5353021 29.3957909,62.1266124 29.4297352,61.1252546 C29.4636796,60.1238968 29.5315682,59.3686354 29.6334012,58.8594705 C26.9857434,56.0081466 25.6619145,52.6137135 25.6619145,48.6761711 C25.6619145,46.0964019 25.9674134,43.7627291 26.5784114,41.6751527 C27.1894094,39.5875764 27.9446707,37.8903598 28.8441955,36.5835031 C29.7437203,35.2766463 30.8553971,34.1395112 32.1792261,33.1720978 C33.503055,32.2046843 34.733537,31.4918534 35.8706721,31.0336049 C37.0078072,30.5753564 38.2892057,30.2104549 39.7148676,29.9389002 C41.1405295,29.6673456 42.2182621,29.5145961 42.9480652,29.4806517 C43.6778683,29.4467074 44.467074,29.4297352 45.3156823,29.4297352 L50,29.4297352 L54.5824847,29.4297352 Z" id="Shape" fill="currentColor" fill-rule="nonzero" transform="translate(50.000000, 50.000000) rotate(180.000000) translate(-50.000000, -50.000000) "></path>
    </g>
</svg>
