<?xml version="1.0" encoding="UTF-8"?>
<svg width="100px" height="100px" viewBox="0 0 100 100" version="1.1"
    xmlns="http://www.w3.org/2000/svg"
    xmlns:xlink="http://www.w3.org/1999/xlink">
    <title>user</title>
    <g id="user" stroke="none" stroke-width="1" fill="none" fill-rule="evenodd">
        <path d="M73.6219544,55.7498264 C79.6040422,58.8820959 84.8902063,63.192538 89.1624848,68.422171 C93.4337429,73.651804 96.6034617,79.6914433 98.4784764,86.1782291 C99.4517902,89.4656019 98.8019892,93.0195074 96.7293198,95.749937 C94.7227734,98.4436317 91.5531567,100.022089 88.1937425,100.000229 L12.6931484,100.000229 C9.34332617,100.021399 6.18487275,98.441999 4.1926734,95.749937 C2.11996322,93.0195074 1.47024382,89.4656019 2.4428229,86.178025 C4.31161311,79.6936882 7.47408697,73.6540489 11.7398348,68.4244159 C16.006399,63.1947829 21.2870528,58.8829123 27.2644468,55.7498264 C33.7295997,61.2592575 41.9472153,64.2854037 50.4421801,64.2854037 C58.9383694,64.2854037 67.1549647,61.2592575 73.6219544,55.7498264 Z M50.8740203,0 C66.6537363,0 79.4456736,12.7919374 79.4456736,28.5716534 C79.4456736,44.3513694 66.6537363,57.1433067 50.8740203,57.1433067 C35.0951206,57.1433067 22.3023669,44.3513694 22.3023669,28.5716534 C22.3023669,12.7919374 35.0951206,0 50.8740203,0 Z" id="Shape" fill="currentColor" fill-rule="nonzero"></path>
    </g>
</svg>
