<svg enable-background="new -17.576 -16.508 85.185 80" height="80" viewBox="-17.576 -16.508 85.185 80" width="85.185" xmlns="http://www.w3.org/2000/svg"><path d="m-11.77 16.168h73.065v36.675h-73.065z" fill="#fff" transform="matrix(-.9646 .2638 -.2638 -.9646 57.7508 61.2566)"/><g fill="#4b4d58"><path d="m67.525 41.667-9.228-34.194c-.166-.61-.571-1.132-1.123-1.449-.553-.319-1.215-.404-1.827-.241l-13.804 3.655-22.808-17.146c.57-1.3.712-2.733.335-4.124-.743-2.753-3.269-4.676-6.145-4.676-.552 0-1.106.072-1.645.213-1.645.434-3.016 1.477-3.867 2.937-.854 1.455-1.078 3.156-.641 4.782.38 1.413 1.236 2.599 2.36 3.427l-11.116 26.106-13.806 3.651c-1.282.342-2.048 1.65-1.704 2.92l9.23 34.193c.286 1.065 1.258 1.771 2.324 1.771.206 0 .416-.028.624-.081l71.131-18.824c1.289-.339 2.056-1.65 1.71-2.92zm-57.26-51.166c-.187-.705-.092-1.438.278-2.068.365-.63.958-1.081 1.668-1.269.236-.062.471-.091.713-.091 1.241 0 2.336.831 2.655 2.023.08.292.101.59.077.885-.026.409-.138.813-.351 1.181-.333.567-.851.978-1.469 1.192l-.414.108c-1.083.198-2.168-.288-2.773-1.163-.167-.243-.305-.505-.384-.798zm1.646 5.514c.327.053.664.084 1.009.084.553 0 1.109-.071 1.649-.214.88-.233 1.673-.651 2.361-1.206l20.929 15.734-36.157 9.57zm-16.145 62.168-7.982-29.582 66.479-17.592 7.983 29.583z"/><path d="m11.202 43.498c-.405-.186-.84-.225-1.258-.114l-4.553 1.203c.053-.14.112-.283.186-.425.248-.501.541-1.019.881-1.538.344-.539.712-1.093 1.1-1.661.408-.593.763-1.201 1.064-1.803.311-.626.536-1.271.669-1.916.145-.685.117-1.391-.072-2.095-.168-.624-.41-1.194-.73-1.696-.332-.525-.775-.951-1.313-1.259-.528-.302-1.156-.483-1.868-.543-.684-.057-1.494.033-2.374.266-.903.238-1.663.579-2.25 1.013-.576.426-1.041.878-1.383 1.345-.337.474-.577.942-.702 1.389-.13.45-.182.811-.168 1.044-.016.379.071.73.264 1.041.218.351.588.582 1.11.69.577.104 1.053.01 1.451-.263.368-.251.625-.565.762-.932.12-.306.234-.575.341-.8.089-.186.193-.344.31-.471.108-.118.245-.216.405-.302.196-.099.458-.19.774-.274.525-.14.926-.139 1.116-.004.235.171.412.466.524.887.087.322.054.661-.104 1.028-.196.458-.472.955-.819 1.476-.366.552-.768 1.136-1.206 1.742-.461.636-.871 1.309-1.23 1.995-.36.704-.637 1.46-.812 2.242-.179.799-.176 1.629.026 2.474.004.108.033.205.074.286.184.658.597.951.909 1.08.247.104.502.157.756.157.164 0 .331-.021.496-.065l7.27-1.924c.43-.111.775-.349 1.032-.698.199-.268.402-.735.22-1.411-.182-.707-.591-1.025-.898-1.164z"/><path d="m23.52 36.407-.15.039-.604-2.245c-.08-.298-.293-.715-.854-1.01-.424-.227-.914-.273-1.449-.136-.57.152-.998.436-1.263.847-.347.534-.325 1.008-.242 1.307l.603 2.245-2.45.648 1.689-7.557c.137-.445.073-.9-.189-1.323-.257-.408-.65-.685-1.167-.82-.57-.156-1.079-.118-1.492.098-.407.213-.701.549-.88 1.049l-2.222 10.479c-.071.232-.09.454-.046.661.022.12.046.24.081.356.135.496.426.886.839 1.122.419.239.864.306 1.288.191l5.482-1.45.455 1.678c.082.303.296.722.871 1.018.257.129.551.195.86.195.211 0 .434-.031.661-.089.529-.142.928-.421 1.191-.835.332-.53.305-.997.226-1.295l-.456-1.682.148-.038c.59-.156 1.018-.434 1.264-.828.253-.399.315-.878.176-1.382-.292-1.091-1.153-1.565-2.37-1.243z"/><path d="m33.921 23.872c-.578-.037-1.07.086-1.467.374-.53.381-.672.841-.691 1.139l-1.59 14.053c-.022.31.037.774.466 1.24.336.356.795.562 1.383.61.015.002.129.004.139.004.5 0 .93-.14 1.275-.411.393-.308.62-.705.655-1.131l1.583-14.054c.036-.435-.111-.857-.429-1.22-.322-.368-.767-.569-1.324-.604z"/><path d="m49.125 20.465c-.418-.237-.926-.287-1.491-.136l-7.154 1.894c-.546.143-.955.426-1.215.84-.263.417-.329.921-.182 1.452.132.507.439.895.881 1.128.427.227.931.271 1.473.125l4.476-1.184-.774 2.986c-.268 1.038-.375 2.122-.306 3.221.06 1.077.221 2.075.479 2.965l.622 2.223c.083.302.3.722.872 1.016.261.133.552.199.864.199.21 0 .431-.032.658-.094.542-.143.954-.426 1.215-.838.333-.529.308-.997.222-1.301l-.642-2.303c-.253-.869-.378-1.654-.371-2.328.004-.693.081-1.44.227-2.211l1.129-5.592c.068-.334.02-.678-.117-.946-.16-.504-.452-.878-.866-1.116z"/></g></svg>