<svg enable-background="new 0 0 100 100" height="100" viewBox="0 0 100 100" width="100" xmlns="http://www.w3.org/2000/svg"><path d="m50 0c-27.616 0-50 22.384-50 50 0 27.612 22.384 50 50 50 27.615 0 50-22.388 50-50 0-27.616-22.385-50-50-50z" fill="#fff"/><g fill="#f00"><path d="m50 0c-27.616 0-50 22.384-50 50 0 27.612 22.384 50 50 50 27.615 0 50-22.388 50-50 0-27.616-22.385-50-50-50zm0 89.287c-21.663 0-39.287-17.625-39.287-39.287s17.624-39.286 39.287-39.286c21.662 0 39.287 17.624 39.287 39.286s-17.625 39.287-39.287 39.287z"/><circle cx="50" cy="50" r="9"/></g></svg>