<svg enable-background="new 0 0 91.607 30" height="30" viewBox="0 0 91.607 30" width="91.607" xmlns="http://www.w3.org/2000/svg"><g fill="#fff"><path d="m26.897 4.315c-1.411-1.342-3.068-2.397-4.974-3.165-1.902-.766-3.964-1.15-6.183-1.15-2.22 0-4.288.39-6.206 1.171s-3.583 1.85-4.993 3.206c-1.411 1.356-2.52 2.945-3.328 4.767-.809 1.822-1.213 3.774-1.213 5.856v.082c0 2.083.397 4.034 1.192 5.855.794 1.823 1.896 3.405 3.308 4.748 1.411 1.342 3.068 2.397 4.974 3.164 1.904.768 3.965 1.15 6.185 1.15s4.288-.391 6.206-1.171c1.917-.781 3.582-1.851 4.993-3.206s2.521-2.945 3.329-4.768c.808-1.821 1.212-3.773 1.212-5.855v-.083c0-2.082-.397-4.034-1.191-5.856-.797-1.82-1.899-3.402-3.311-4.745zm-5.198 10.767c0 .85-.137 1.658-.411 2.425-.273.769-.672 1.445-1.191 2.034-.521.589-1.151 1.062-1.891 1.418-.74.355-1.562.534-2.466.534-.932 0-1.768-.179-2.507-.534-.74-.355-1.371-.835-1.892-1.438-.521-.604-.925-1.295-1.212-2.076-.286-.78-.43-1.595-.43-2.445v-.083c0-.849.137-1.657.411-2.424.272-.767.671-1.445 1.191-2.034s1.15-1.062 1.891-1.418c.74-.355 1.562-.534 2.466-.534.931 0 1.767.179 2.507.534.74.356 1.37.836 1.892 1.438.52.603.924 1.294 1.212 2.075s.431 1.596.431 2.445v.083z"/><path d="m63.822.616h-11.178l-8.178 10.768v-10.768h-9.616v28.767h9.616v-6.123l2.466-3 5.63 9.123h11.465l-10.232-16.274z"/><path d="m83.068 9.597v-8.976h-11.274v8.976h-8.538v10.837h8.538v8.975h11.274v-8.975h8.539v-10.837z"/></g></svg>