<svg enable-background="new 0 0 90 60.385" height="60.385" viewBox="0 0 90 60.385" width="90" xmlns="http://www.w3.org/2000/svg"><circle cx="29.876" cy="30.079" fill="#fff" r="28.083"/><g fill="#4b4d58"><path d="m60.231 14.385c1.943-.17 2.946-.857 3.753-1.407.713-.489 1.278-.875 2.584-.989s1.928.169 2.716.525c.891.403 1.997.904 3.94.734s2.946-.856 3.751-1.407c.717-.489 1.282-.875 2.586-.989 1.306-.114 1.93.168 2.718.525.889.402 1.995.904 3.938.734.675-.059 1.172-.653 1.113-1.326-.058-.672-.652-1.17-1.325-1.111-1.304.114-1.928-.168-2.718-.525-.889-.402-1.997-.904-3.938-.733-1.943.169-2.948.855-3.753 1.406-.715.488-1.278.875-2.586.989-1.304.114-1.928-.168-2.718-.525-.889-.402-1.995-.904-3.937-.733-1.944.169-2.947.855-3.752 1.406-.716.488-1.28.875-2.586.989-1.182.103-1.806-.119-2.498-.428.637.931 1.228 1.897 1.77 2.895.293.007.605-.001.942-.03z"/><path d="m86.539 15.765c-1.304.114-1.93-.168-2.718-.524-.889-.403-1.997-.905-3.94-.734-1.943.17-2.946.856-3.752 1.407-.714.489-1.278.874-2.585.988-1.304.114-1.928-.168-2.719-.524-.888-.404-1.996-.905-3.938-.734-1.942.169-2.945.856-3.75 1.407-.637.434-1.155.785-2.178.938.303.765.576 1.544.825 2.335 1.298-.277 2.08-.811 2.732-1.255.713-.489 1.278-.875 2.584-.99 1.304-.114 1.927.168 2.716.526.891.402 1.996.903 3.94.733 1.943-.17 2.946-.855 3.751-1.406.717-.49 1.28-.876 2.586-.99s1.93.169 2.718.526c.889.403 1.995.903 3.938.733.675-.059 1.172-.652 1.113-1.325-.057-.672-.65-1.17-1.323-1.111z"/><path d="m87.07 21.856c-1.302.114-1.928-.168-2.718-.526-.889-.402-1.995-.904-3.938-.733-1.944.169-2.946.856-3.752 1.406-.714.489-1.28.875-2.585.99-1.304.114-1.928-.168-2.719-.526-.888-.402-1.996-.904-3.938-.733-1.942.169-2.947.856-3.752 1.406-.339.232-.647.44-1.018.608.162.812.29 1.635.392 2.47.884-.293 1.485-.703 2.006-1.058.714-.49 1.28-.876 2.586-.99 1.304-.114 1.927.169 2.716.526.889.402 1.996.903 3.94.732 1.943-.17 2.944-.855 3.751-1.405.717-.489 1.28-.875 2.586-.99s1.929.168 2.716.526c.891.401 1.997.903 3.94.732.675-.059 1.171-.652 1.113-1.324-.058-.673-.651-1.17-1.326-1.111z"/><path d="m87.604 27.947c-1.304.114-1.928-.168-2.718-.525-.889-.403-1.995-.904-3.938-.733-1.944.17-2.946.854-3.752 1.406-.714.489-1.28.875-2.586.989-1.304.114-1.927-.169-2.718-.525-.889-.404-1.996-.904-3.938-.733-1.941.169-2.946.854-3.751 1.406-.309.21-.593.402-.92.562.013.882-.012 1.758-.068 2.624 1.086-.293 1.78-.765 2.368-1.167.714-.489 1.28-.875 2.586-.989 1.303-.114 1.927.168 2.716.524.889.403 1.994.907 3.938.736 1.943-.17 2.946-.858 3.753-1.409.717-.489 1.28-.875 2.586-.989s1.929.169 2.716.525c.891.403 1.996.906 3.94.735.673-.059 1.171-.653 1.113-1.326-.06-.672-.654-1.17-1.327-1.111z"/><path d="m88.137 34.038c-1.304.112-1.928-.168-2.719-.525-.888-.402-1.994-.905-3.938-.734-1.944.169-2.947.857-3.752 1.409-.715.485-1.28.874-2.586.986-1.304.115-1.927-.167-2.718-.522-.889-.402-1.996-.906-3.938-.736-1.941.171-2.946.855-3.751 1.407-.599.406-1.096.739-2 .906-.158.856-.349 1.701-.569 2.531.065-.003.13-.007.197-.015 1.944-.17 2.946-.854 3.752-1.403.714-.489 1.28-.876 2.585-.989 1.304-.114 1.928.166 2.717.525.889.402 1.994.903 3.938.732 1.943-.17 2.946-.855 3.753-1.407.716-.489 1.28-.874 2.586-.988s1.929.169 2.716.524c.891.402 1.996.903 3.94.732.673-.058 1.171-.649 1.113-1.323-.06-.67-.652-1.169-1.326-1.11z"/><path d="m88.669 40.129c-1.303.114-1.927-.169-2.718-.527-.889-.399-1.996-.903-3.938-.732-1.943.17-2.946.855-3.751 1.406-.715.49-1.28.876-2.586.99-1.304.114-1.929-.168-2.718-.525-.889-.402-1.996-.905-3.938-.734-1.943.168-2.946.857-3.751 1.405-.717.489-1.28.877-2.586.991-.72.063-1.229.002-1.678-.123-.303.768-.633 1.52-.987 2.258.723.241 1.626.409 2.879.301 1.943-.171 2.946-.855 3.752-1.407.714-.487 1.278-.874 2.583-.988 1.306-.114 1.93.169 2.719.524.888.402 1.994.902 3.938.732 1.944-.171 2.947-.853 3.754-1.403.716-.489 1.28-.876 2.584-.99 1.306-.114 1.931.167 2.718.526.891.402 1.996.902 3.94.732.672-.061 1.171-.653 1.111-1.324-.059-.675-.652-1.172-1.327-1.112z"/><path d="m27.559.116c-16.584 1.45-28.893 16.123-27.443 32.707 1.45 16.582 16.123 28.896 32.707 27.445 16.583-1.451 28.893-16.125 27.443-32.708-1.451-16.583-16.121-28.894-32.707-27.444zm4.89 55.888c-14.234 1.243-26.825-9.32-28.07-23.554-1.244-14.233 9.32-26.825 23.554-28.071 14.231-1.245 26.824 9.322 28.068 23.555 1.245 14.231-9.32 26.824-23.552 28.07z"/><path d="m46.881 28.732c-.806-9.204-8.947-16.035-18.15-15.23-9.202.805-16.034 8.946-15.229 18.15.805 9.202 8.948 16.032 18.15 15.228 9.202-.806 16.034-8.946 15.229-18.148zm-15.603 13.886c-6.852.599-12.914-4.487-13.512-11.34-.6-6.852 4.486-12.913 11.338-13.513 6.852-.599 12.914 4.487 13.514 11.339.598 6.853-4.488 12.915-11.34 13.514z"/><path d="m19.153 13.215c.183-.016.366-.074.533-.177.484-.296.986-.577 1.496-.832.604-.303.849-1.038.546-1.641-.303-.604-1.037-.847-1.641-.545-.571.287-1.137.601-1.681.933-.575.354-.754 1.107-.401 1.684.25.407.702.617 1.148.578z"/><path d="m49.559 24.764c.152.55.283 1.112.39 1.669.118.622.689 1.045 1.306.992.042-.004.082-.009.123-.017.664-.126 1.099-.766.974-1.429-.119-.626-.265-1.256-.437-1.872-.18-.65-.857-1.032-1.507-.85-.65.183-1.031.857-.849 1.507z"/><path d="m13.338 18.471c.33-.029.649-.192.865-.477.347-.452.714-.896 1.097-1.317.453-.5.417-1.273-.083-1.727-.502-.454-1.274-.416-1.728.084-.43.472-.843.969-1.229 1.477-.41.537-.307 1.304.23 1.713.251.193.554.273.848.247z"/><path d="m10.163 31.991-.005-.047c-.049-.571-.076-1.147-.078-1.714 0-.674-.549-1.221-1.226-1.219s-1.22.551-1.219 1.227c.002.635.031 1.28.087 1.918l.003.047c.06.675.653 1.172 1.325 1.113.672-.057 1.171-.652 1.113-1.325z"/><path d="m33.976 10.436c.558.107 1.119.238 1.666.394.147.04.295.053.437.04.493-.042.93-.382 1.072-.886.183-.651-.194-1.325-.845-1.509-.615-.173-1.246-.322-1.871-.441-.666-.127-1.306.309-1.431.971-.127.664.308 1.305.972 1.431z"/><path d="m11.463 37.534c-.245-.627-.954-.939-1.583-.69-.629.244-.939.955-.693 1.584.232.594.495 1.188.778 1.759.229.465.716.719 1.204.677.147-.015.293-.055.435-.123.604-.298.852-1.034.553-1.64-.252-.508-.486-1.034-.694-1.567z"/><path d="m47.261 19.554c.253.403.7.609 1.145.57.187-.017.374-.075.542-.181.571-.357.747-1.111.39-1.684-.337-.541-.705-1.075-1.088-1.587-.406-.54-1.173-.65-1.711-.245-.541.406-.649 1.172-.247 1.712.344.458.67.933.969 1.415z"/><path d="m40.85 13.138c.482.304.959.63 1.415.971.25.19.551.267.839.241.333-.029.655-.194.872-.483.406-.54.297-1.306-.243-1.713-.51-.382-1.043-.749-1.585-1.089-.573-.358-1.327-.184-1.685.387-.359.573-.185 1.327.387 1.686z"/><path d="m26.473 10.422c.037-.004.075-.009.113-.016.558-.102 1.129-.18 1.701-.235.671-.064 1.164-.661 1.101-1.333-.063-.668-.656-1.16-1.324-1.102-.003 0-.007 0-.011.001-.637.061-1.279.15-1.903.263-.666.121-1.106.756-.986 1.421.114.628.687 1.056 1.309 1.001z"/><path d="m10.718 21.386c-.629-.244-1.338.071-1.579.7-.232.597-.437 1.21-.617 1.824-.188.648.185 1.327.834 1.515.149.043.301.057.448.044.487-.042.923-.38 1.068-.878.158-.546.341-1.092.547-1.624.244-.631-.07-1.338-.701-1.581z"/><path d="m49.804 38.681c-.603-.305-1.339-.062-1.642.542-.257.509-.54 1.014-.836 1.497-.355.575-.174 1.329.401 1.682.229.145.491.199.745.178.371-.033.725-.234.936-.577.335-.544.649-1.106.938-1.679.304-.603.061-1.34-.542-1.643z"/><path d="m37.392 48.974c-.533.205-1.079.387-1.625.542-.649.188-1.024.863-.839 1.513.167.573.709.932 1.282.881.076-.007.154-.02.232-.042.613-.177 1.228-.382 1.824-.61.631-.241.946-.946.705-1.578-.243-.632-.948-.951-1.579-.706z"/><path d="m51.544 31.024c-.671-.062-1.27.429-1.333 1.103-.054.566-.134 1.136-.235 1.697-.121.664.317 1.302.982 1.422.111.02.22.025.327.015.536-.046.995-.446 1.095-.997.116-.63.205-1.27.265-1.904.065-.675-.428-1.27-1.101-1.336z"/><path d="m43.684 45.103c-.422.385-.867.753-1.318 1.097-.537.41-.64 1.177-.232 1.714.265.347.678.512 1.081.477.223-.02.442-.1.634-.244.506-.387 1.003-.798 1.478-1.229.501-.453.539-1.228.086-1.727-.456-.502-1.229-.542-1.729-.088z"/><path d="m15.381 43.797c-.457-.497-1.229-.529-1.726-.07-.497.457-.529 1.229-.073 1.728.434.472.891.929 1.36 1.358.263.241.604.347.934.317.293-.025.58-.16.794-.392.457-.501.424-1.273-.074-1.729-.419-.385-.828-.791-1.215-1.212z"/><path d="m22.866 48.925c-.529-.207-1.057-.44-1.568-.694-.607-.299-1.34-.049-1.639.557-.299.602-.051 1.338.555 1.636.575.282 1.166.546 1.759.777.181.071.372.097.553.082.448-.04.858-.326 1.032-.772.246-.629-.064-1.339-.692-1.586z"/><path d="m30.121 50.303c-.571-.002-1.148-.029-1.71-.076-.673-.062-1.268.438-1.326 1.109-.06.673.437 1.266 1.11 1.324.633.058 1.278.087 1.922.087.037 0 .073-.002.109-.004.624-.054 1.113-.576 1.115-1.215.002-.675-.544-1.225-1.22-1.225z"/><path d="m35.486 27.581-3.349.293-.293-3.351c-.104-1.177-1.143-2.048-2.319-1.945s-2.047 1.141-1.945 2.318l.293 3.351-3.351.293c-1.177.103-2.047 1.14-1.944 2.318.103 1.177 1.141 2.049 2.317 1.945l3.351-.292.292 3.347c.104 1.179 1.142 2.05 2.319 1.946s2.049-1.141 1.946-2.319l-.294-3.348 3.351-.293c1.177-.102 2.047-1.143 1.944-2.319-.104-1.177-1.141-2.047-2.318-1.944z"/></g></svg>